<svg width="35" height="34" viewBox="0 0 35 34" fill="none" xmlns="http://www.w3.org/2000/svg">
<path id="Vector" d="M15.2599 1.64921C15.9661 -0.549736 19.0333 -0.549736 19.7372 1.64921L22.2559 9.50906C22.4098 9.98773 22.709 10.4048 23.1106 10.7007C23.5122 10.9966 23.9958 11.1561 24.4922 11.1565H32.6417C34.9227 11.1565 35.869 14.117 34.0259 15.478L27.4347 20.3343C27.0322 20.6304 26.7326 21.0482 26.5786 21.5277C26.4247 22.0072 26.4244 22.5239 26.5779 23.0035L29.0966 30.8634C29.8028 33.0623 27.3194 34.8936 25.4715 33.5327L18.8803 28.6764C18.4783 28.3803 17.9942 28.2209 17.4973 28.2209C17.0005 28.2209 16.5164 28.3803 16.1144 28.6764L9.52322 33.5327C7.67769 34.8936 5.19659 33.0623 5.90043 30.8634L8.4192 23.0035C8.57261 22.5239 8.57234 22.0072 8.41841 21.5277C8.26448 21.0482 7.9648 20.6304 7.56234 20.3343L0.973533 15.4803C-0.869639 14.1194 0.0790186 11.1589 2.35768 11.1589H10.5048C11.0016 11.159 11.4857 10.9997 11.8879 10.7038C12.29 10.4079 12.5895 9.99051 12.7435 9.51144L15.2622 1.65159L15.2599 1.64921Z" fill="#CC0000"/>
</svg>
